<svg width="25" height="25" viewBox="0 0 25 25" fill="none" xmlns="http://www.w3.org/2000/svg">
<g clip-path="url(#clip0_9_154)">
<path d="M8.25203 16.1623H21.0436C21.3603 16.1623 21.6382 15.9456 21.7239 15.6309L24.5561 5.37682C24.617 5.15576 24.5753 4.91829 24.4413 4.73461C24.307 4.55151 24.0983 4.44336 23.8756 4.44336H6.61753L6.11142 2.0874C6.03951 1.7519 5.75188 1.51367 5.42 1.51367H1.12476C0.733508 1.51367 0.416748 1.84135 0.416748 2.24609C0.416748 2.65102 0.733508 2.97852 1.12476 2.97852H4.85175L7.40851 14.8804C6.65625 15.2187 6.12801 15.9933 6.12801 16.8947C6.12801 18.1063 7.08087 19.092 8.25203 19.092H21.0436C21.435 19.092 21.7516 18.7645 21.7516 18.3596C21.7516 17.9548 21.435 17.6271 21.0436 17.6271H8.25203C7.86208 17.6271 7.54403 17.2989 7.54403 16.8947C7.54403 16.4906 7.86208 16.1623 8.25203 16.1623Z" fill="#4BA9FF"/>
<path d="M7.54395 21.2893C7.54395 22.501 8.49681 23.4866 9.66815 23.4866C10.8393 23.4866 11.7922 22.501 11.7922 21.2893C11.7922 20.0778 10.8393 19.092 9.66815 19.092C8.49681 19.092 7.54395 20.0778 7.54395 21.2893Z" fill="#4BA9FF"/>
<path d="M17.5034 21.2893C17.5034 22.501 18.4563 23.4866 19.6274 23.4866C20.7988 23.4866 21.7515 22.501 21.7515 21.2893C21.7515 20.0778 20.7988 19.092 19.6274 19.092C18.4563 19.092 17.5034 20.0778 17.5034 21.2893Z" fill="#4BA9FF"/>
</g>
<defs>
<clipPath id="clip0_9_154">
<rect width="24.1667" height="25" fill="white" transform="translate(0.416748)"/>
</clipPath>
</defs>
</svg>
